<<<<<<< HEAD
<mxfile host="Electron" modified="2023-09-13T09:02:02.780Z" agent="Mozilla/5.0 (Windows NT 10.0; Win64; x64) AppleWebKit/537.36 (KHTML, like Gecko) draw.io/21.6.8 Chrome/114.0.5735.289 Electron/25.5.0 Safari/537.36" etag="8wqklWl3ZpyLOySIJscd" version="21.6.8" type="device">
  <diagram name="Page-1" id="U6Y1kuCNLoN3sCtDY25j">
    <mxGraphModel dx="1216" dy="712" grid="1" gridSize="10" guides="1" tooltips="1" connect="1" arrows="1" fold="1" page="1" pageScale="1" pageWidth="1100" pageHeight="850" math="0" shadow="0">
=======
<mxfile host="Electron" modified="2023-09-17T03:22:43.953Z" agent="Mozilla/5.0 (Windows NT 10.0; Win64; x64) AppleWebKit/537.36 (KHTML, like Gecko) draw.io/21.7.5 Chrome/114.0.5735.289 Electron/25.8.1 Safari/537.36" etag="lMC1e_gBhHwjOk_Veet9" version="21.7.5" type="device">
  <diagram name="Page-1" id="U6Y1kuCNLoN3sCtDY25j">
    <mxGraphModel dx="1838" dy="1929" grid="1" gridSize="10" guides="1" tooltips="1" connect="1" arrows="1" fold="1" page="1" pageScale="1" pageWidth="1100" pageHeight="850" math="0" shadow="0">
>>>>>>> 4426bee86224a81d50b2336c81a6f5cf31a6df04
      <root>
        <mxCell id="0" />
        <mxCell id="1" parent="0" />
        <mxCell id="00phFU2rRCMJU7jdcwVd-1" value="&lt;b&gt;Planter box&lt;/b&gt;&lt;br&gt;&lt;br&gt;&lt;br&gt;&lt;br&gt;&lt;br&gt;&lt;br&gt;&lt;br&gt;&lt;br&gt;&lt;br&gt;&lt;br&gt;&lt;br&gt;&lt;br&gt;" style="rounded=0;whiteSpace=wrap;html=1;fillColor=#dae8fc;strokeColor=#6c8ebf;" parent="1" vertex="1">
          <mxGeometry x="75" y="510" width="320" height="200" as="geometry" />
        </mxCell>
        <mxCell id="5iOmylpKupVFzkbTGkgb-2" value="" style="rounded=0;whiteSpace=wrap;html=1;" parent="1" vertex="1">
<<<<<<< HEAD
          <mxGeometry x="257.5" y="450" width="100" height="130" as="geometry" />
=======
          <mxGeometry x="91.25" y="80" width="100" height="100" as="geometry" />
>>>>>>> 4426bee86224a81d50b2336c81a6f5cf31a6df04
        </mxCell>
        <mxCell id="D4PkcG-bPS566rzzm9Mx-2" value="" style="rounded=0;whiteSpace=wrap;html=1;" parent="1" vertex="1">
          <mxGeometry x="375" y="90" width="382.5" height="110" as="geometry" />
        </mxCell>
        <mxCell id="00phFU2rRCMJU7jdcwVd-2" value="&lt;b&gt;Mixing tank&lt;/b&gt;&lt;br&gt;&lt;br&gt;&lt;br&gt;&lt;br&gt;&lt;br&gt;&lt;br&gt;&lt;br&gt;&lt;br&gt;&lt;br&gt;&lt;br&gt;&lt;br&gt;&lt;br&gt;" style="rounded=0;whiteSpace=wrap;html=1;fillColor=#dae8fc;strokeColor=#6c8ebf;" parent="1" vertex="1">
          <mxGeometry x="515" y="510" width="270" height="200" as="geometry" />
        </mxCell>
        <mxCell id="00phFU2rRCMJU7jdcwVd-3" value="Doser" style="rounded=0;whiteSpace=wrap;html=1;fillColor=#f5f5f5;strokeColor=#666666;fontColor=#333333;" parent="1" vertex="1">
          <mxGeometry x="925" y="550" width="100" height="40" as="geometry" />
        </mxCell>
        <mxCell id="UCaZJMUw1IZfUJYBVw5F-2" value="" style="verticalLabelPosition=bottom;align=center;html=1;verticalAlign=top;pointerEvents=1;dashed=0;shape=mxgraph.pid2valves.valve;valveType=gate;actuator=solenoid;fillColor=#f5f5f5;fontColor=#333333;strokeColor=#666666;" parent="1" vertex="1">
          <mxGeometry x="530" y="340" width="90" height="60" as="geometry" />
        </mxCell>
        <mxCell id="UCaZJMUw1IZfUJYBVw5F-3" value="" style="shape=mxgraph.pid.pumps.centrifugal_pump_2;html=1;pointerEvents=1;align=center;verticalLabelPosition=bottom;verticalAlign=top;dashed=0;fillColor=#f5f5f5;fontColor=#333333;strokeColor=#666666;" parent="1" vertex="1">
          <mxGeometry x="575" y="650" width="40" height="40" as="geometry" />
        </mxCell>
        <mxCell id="UCaZJMUw1IZfUJYBVw5F-4" value="" style="shape=offPageConnector;whiteSpace=wrap;html=1;fillColor=#f5f5f5;fontColor=#333333;strokeColor=#666666;" parent="1" vertex="1">
          <mxGeometry x="690" y="570" width="30" height="30" as="geometry" />
        </mxCell>
        <mxCell id="UCaZJMUw1IZfUJYBVw5F-6" value="" style="shape=offPageConnector;whiteSpace=wrap;html=1;fillColor=#f5f5f5;fontColor=#333333;strokeColor=#666666;" parent="1" vertex="1">
          <mxGeometry x="735" y="570" width="30" height="30" as="geometry" />
        </mxCell>
        <mxCell id="UCaZJMUw1IZfUJYBVw5F-7" value="ESP" style="rounded=0;whiteSpace=wrap;html=1;fillColor=#fff2cc;strokeColor=#d6b656;" parent="1" vertex="1">
          <mxGeometry x="660" y="100" width="90" height="50" as="geometry" />
        </mxCell>
        <mxCell id="UCaZJMUw1IZfUJYBVw5F-8" value="Water level" style="text;html=1;strokeColor=none;fillColor=none;align=center;verticalAlign=middle;whiteSpace=wrap;rounded=0;" parent="1" vertex="1">
          <mxGeometry x="675" y="540" width="60" height="30" as="geometry" />
        </mxCell>
        <mxCell id="UCaZJMUw1IZfUJYBVw5F-10" value="pH, EC, NPK, sens (water)" style="text;html=1;strokeColor=none;fillColor=none;align=center;verticalAlign=middle;whiteSpace=wrap;rounded=0;" parent="1" vertex="1">
          <mxGeometry x="727.5" y="520" width="45" height="30" as="geometry" />
        </mxCell>
        <mxCell id="UCaZJMUw1IZfUJYBVw5F-11" value="Relay" style="rounded=0;whiteSpace=wrap;html=1;fillColor=#fff2cc;strokeColor=#d6b656;" parent="1" vertex="1">
          <mxGeometry x="395" y="100" width="90" height="50" as="geometry" />
        </mxCell>
        <mxCell id="UCaZJMUw1IZfUJYBVw5F-12" value="Power supply&lt;br&gt;240 AC" style="rounded=0;whiteSpace=wrap;html=1;fillColor=#fff2cc;strokeColor=#d6b656;" parent="1" vertex="1">
          <mxGeometry x="395" y="-67.5" width="90" height="50" as="geometry" />
        </mxCell>
        <mxCell id="UCaZJMUw1IZfUJYBVw5F-14" value="" style="endArrow=none;html=1;rounded=0;entryX=0.75;entryY=1;entryDx=0;entryDy=0;fillColor=#fff2cc;strokeColor=#d6b656;exitX=0.5;exitY=1;exitDx=0;exitDy=0;edgeStyle=orthogonalEdgeStyle;" parent="1" source="UCaZJMUw1IZfUJYBVw5F-4" target="UCaZJMUw1IZfUJYBVw5F-7" edge="1">
          <mxGeometry width="50" height="50" relative="1" as="geometry">
            <mxPoint x="675" y="570" as="sourcePoint" />
            <mxPoint x="725" y="520" as="targetPoint" />
            <Array as="points">
              <mxPoint x="705" y="610" />
              <mxPoint x="840" y="610" />
              <mxPoint x="840" y="220" />
              <mxPoint x="728" y="220" />
            </Array>
          </mxGeometry>
        </mxCell>
        <mxCell id="UCaZJMUw1IZfUJYBVw5F-15" value="" style="endArrow=none;html=1;rounded=0;entryX=0.25;entryY=1;entryDx=0;entryDy=0;fillColor=#fff2cc;strokeColor=#d6b656;exitX=0.5;exitY=1;exitDx=0;exitDy=0;" parent="1" source="UCaZJMUw1IZfUJYBVw5F-6" target="UCaZJMUw1IZfUJYBVw5F-7" edge="1">
          <mxGeometry width="50" height="50" relative="1" as="geometry">
            <mxPoint x="750" y="600" as="sourcePoint" />
            <mxPoint x="704.83" y="629" as="targetPoint" />
            <Array as="points">
              <mxPoint x="800" y="600" />
              <mxPoint x="800" y="240" />
              <mxPoint x="683" y="240" />
            </Array>
          </mxGeometry>
        </mxCell>
        <mxCell id="UCaZJMUw1IZfUJYBVw5F-16" value="" style="endArrow=none;html=1;rounded=0;entryX=0;entryY=0.5;entryDx=0;entryDy=0;exitX=1;exitY=0.5;exitDx=0;exitDy=0;fillColor=#fff2cc;strokeColor=#d6b656;" parent="1" source="UCaZJMUw1IZfUJYBVw5F-11" target="UCaZJMUw1IZfUJYBVw5F-7" edge="1">
          <mxGeometry width="50" height="50" relative="1" as="geometry">
            <mxPoint x="585" y="121" as="sourcePoint" />
            <mxPoint x="585" y="290" as="targetPoint" />
          </mxGeometry>
        </mxCell>
        <mxCell id="UCaZJMUw1IZfUJYBVw5F-17" value="" style="endArrow=none;html=1;rounded=0;entryX=0.5;entryY=1;entryDx=0;entryDy=0;exitX=0.5;exitY=0;exitDx=0;exitDy=0;fillColor=#fff2cc;strokeColor=#d6b656;" parent="1" source="UCaZJMUw1IZfUJYBVw5F-11" target="UCaZJMUw1IZfUJYBVw5F-12" edge="1">
          <mxGeometry width="50" height="50" relative="1" as="geometry">
            <mxPoint x="439.5" y="71" as="sourcePoint" />
            <mxPoint x="439.5" y="240" as="targetPoint" />
          </mxGeometry>
        </mxCell>
        <mxCell id="UCaZJMUw1IZfUJYBVw5F-18" value="Pump" style="text;html=1;strokeColor=none;fillColor=none;align=center;verticalAlign=middle;whiteSpace=wrap;rounded=0;" parent="1" vertex="1">
          <mxGeometry x="575" y="690" width="40" height="20" as="geometry" />
        </mxCell>
        <mxCell id="UCaZJMUw1IZfUJYBVw5F-19" value="" style="endArrow=none;html=1;rounded=0;fillColor=#fff2cc;strokeColor=#d6b656;entryX=0;entryY=0.52;entryDx=0;entryDy=0;entryPerimeter=0;exitX=0.169;exitY=1.001;exitDx=0;exitDy=0;exitPerimeter=0;" parent="1" target="UCaZJMUw1IZfUJYBVw5F-3" edge="1" source="D4PkcG-bPS566rzzm9Mx-2">
          <mxGeometry width="50" height="50" relative="1" as="geometry">
            <mxPoint x="430" y="340" as="sourcePoint" />
            <mxPoint x="595" y="780" as="targetPoint" />
            <Array as="points">
              <mxPoint x="440" y="670" />
            </Array>
          </mxGeometry>
        </mxCell>
        <mxCell id="UCaZJMUw1IZfUJYBVw5F-20" value="" style="endArrow=none;html=1;rounded=0;fillColor=#fff2cc;strokeColor=#d6b656;exitX=0.308;exitY=0.166;exitDx=0;exitDy=0;exitPerimeter=0;entryX=0.25;entryY=1;entryDx=0;entryDy=0;" parent="1" source="UCaZJMUw1IZfUJYBVw5F-2" target="D4PkcG-bPS566rzzm9Mx-2" edge="1">
          <mxGeometry width="50" height="50" relative="1" as="geometry">
            <mxPoint x="465" y="290" as="sourcePoint" />
            <mxPoint x="470" y="630" as="targetPoint" />
            <Array as="points">
              <mxPoint x="471" y="350" />
            </Array>
          </mxGeometry>
        </mxCell>
        <mxCell id="UCaZJMUw1IZfUJYBVw5F-21" value="" style="endArrow=none;html=1;rounded=0;fillColor=#fff2cc;strokeColor=#d6b656;exitX=1;exitY=0.5;exitDx=0;exitDy=0;entryX=0.5;entryY=0;entryDx=0;entryDy=0;" parent="1" source="D4PkcG-bPS566rzzm9Mx-2" target="00phFU2rRCMJU7jdcwVd-3" edge="1">
          <mxGeometry width="50" height="50" relative="1" as="geometry">
            <mxPoint x="785" y="655" as="sourcePoint" />
            <mxPoint x="975" y="410" as="targetPoint" />
            <Array as="points">
              <mxPoint x="975" y="145" />
            </Array>
          </mxGeometry>
        </mxCell>
        <mxCell id="UCaZJMUw1IZfUJYBVw5F-22" value="Solenoid valve" style="text;html=1;strokeColor=none;fillColor=none;align=center;verticalAlign=middle;whiteSpace=wrap;rounded=0;" parent="1" vertex="1">
          <mxGeometry x="545" y="310" width="60" height="30" as="geometry" />
        </mxCell>
        <mxCell id="UCaZJMUw1IZfUJYBVw5F-23" value="" style="endArrow=classic;html=1;rounded=0;endWidth=11.724137931034484;fillColor=#fff2cc;strokeColor=#d6b656;" parent="1" edge="1">
          <mxGeometry width="50" height="50" relative="1" as="geometry">
            <mxPoint x="775" y="120" as="sourcePoint" />
            <mxPoint x="815" y="120" as="targetPoint" />
          </mxGeometry>
        </mxCell>
        <mxCell id="UCaZJMUw1IZfUJYBVw5F-25" value="" style="endArrow=classic;html=1;rounded=0;endWidth=11.724137931034484;fillColor=#fff2cc;strokeColor=#d6b656;" parent="1" edge="1">
          <mxGeometry width="50" height="50" relative="1" as="geometry">
            <mxPoint x="749.17" y="280" as="sourcePoint" />
            <mxPoint x="749.17" y="240" as="targetPoint" />
          </mxGeometry>
        </mxCell>
        <mxCell id="UCaZJMUw1IZfUJYBVw5F-26" value="" style="endArrow=classic;html=1;rounded=0;endWidth=11.724137931034484;fillColor=#fff2cc;strokeColor=#d6b656;" parent="1" edge="1">
          <mxGeometry width="50" height="50" relative="1" as="geometry">
            <mxPoint x="700" y="280" as="sourcePoint" />
            <mxPoint x="700" y="240" as="targetPoint" />
          </mxGeometry>
        </mxCell>
        <mxCell id="UCaZJMUw1IZfUJYBVw5F-27" value="" style="endArrow=classic;html=1;rounded=0;endWidth=11.724137931034484;fillColor=#fff2cc;strokeColor=#d6b656;" parent="1" edge="1">
          <mxGeometry width="50" height="50" relative="1" as="geometry">
            <mxPoint x="635" y="120" as="sourcePoint" />
            <mxPoint x="595" y="120" as="targetPoint" />
          </mxGeometry>
        </mxCell>
        <mxCell id="UCaZJMUw1IZfUJYBVw5F-28" value="" style="endArrow=classic;html=1;rounded=0;endWidth=11.724137931034484;fillColor=#fff2cc;strokeColor=#d6b656;" parent="1" edge="1">
          <mxGeometry width="50" height="50" relative="1" as="geometry">
            <mxPoint x="420" y="40" as="sourcePoint" />
            <mxPoint x="420" y="60" as="targetPoint" />
            <Array as="points">
              <mxPoint x="420" />
            </Array>
          </mxGeometry>
        </mxCell>
        <mxCell id="UCaZJMUw1IZfUJYBVw5F-29" value="" style="endArrow=classic;html=1;rounded=0;endWidth=11.724137931034484;fillColor=#fff2cc;strokeColor=#d6b656;" parent="1" edge="1">
          <mxGeometry width="50" height="50" relative="1" as="geometry">
            <mxPoint x="499.43000000000006" y="100" as="sourcePoint" />
            <mxPoint x="545" y="100" as="targetPoint" />
          </mxGeometry>
        </mxCell>
        <mxCell id="UCaZJMUw1IZfUJYBVw5F-30" value="" style="endArrow=classic;html=1;rounded=0;endWidth=11.724137931034484;fillColor=#fff2cc;strokeColor=#d6b656;" parent="1" edge="1">
          <mxGeometry width="50" height="50" relative="1" as="geometry">
            <mxPoint x="484" y="240" as="sourcePoint" />
            <mxPoint x="484.17" y="280" as="targetPoint" />
          </mxGeometry>
        </mxCell>
        <mxCell id="UCaZJMUw1IZfUJYBVw5F-31" value="" style="endArrow=none;html=1;rounded=0;entryX=0.5;entryY=1;entryDx=0;entryDy=0;exitX=1.005;exitY=0.823;exitDx=0;exitDy=0;fillColor=#f8cecc;strokeColor=#b85450;strokeWidth=6;exitPerimeter=0;" parent="1" source="00phFU2rRCMJU7jdcwVd-2" edge="1">
          <mxGeometry width="50" height="50" relative="1" as="geometry">
            <mxPoint x="755" y="794.66" as="sourcePoint" />
            <mxPoint x="950" y="590" as="targetPoint" />
            <Array as="points">
              <mxPoint x="950" y="675" />
            </Array>
          </mxGeometry>
        </mxCell>
        <mxCell id="UCaZJMUw1IZfUJYBVw5F-32" value="" style="endArrow=none;html=1;rounded=0;fillColor=#f8cecc;strokeColor=#b85450;strokeWidth=6;exitX=0.503;exitY=0.688;exitDx=0;exitDy=0;exitPerimeter=0;entryX=0.481;entryY=0.183;entryDx=0;entryDy=0;entryPerimeter=0;" parent="1" source="UCaZJMUw1IZfUJYBVw5F-2" target="UCaZJMUw1IZfUJYBVw5F-3" edge="1">
          <mxGeometry width="50" height="50" relative="1" as="geometry">
            <mxPoint x="576.35" y="390" as="sourcePoint" />
            <mxPoint x="595" y="650" as="targetPoint" />
            <Array as="points">
              <mxPoint x="575" y="500" />
              <mxPoint x="594" y="500" />
            </Array>
          </mxGeometry>
        </mxCell>
        <mxCell id="UCaZJMUw1IZfUJYBVw5F-33" value="" style="endArrow=none;html=1;rounded=0;entryX=0.776;entryY=0.001;entryDx=0;entryDy=0;exitX=0.984;exitY=0.747;exitDx=0;exitDy=0;fillColor=#f8cecc;strokeColor=#b85450;strokeWidth=6;exitPerimeter=0;entryPerimeter=0;" parent="1" source="UCaZJMUw1IZfUJYBVw5F-2" target="00phFU2rRCMJU7jdcwVd-2" edge="1">
          <mxGeometry width="50" height="50" relative="1" as="geometry">
            <mxPoint x="620" y="375" as="sourcePoint" />
            <mxPoint x="784" y="290" as="targetPoint" />
            <Array as="points">
              <mxPoint x="725" y="385" />
            </Array>
          </mxGeometry>
        </mxCell>
        <mxCell id="UCaZJMUw1IZfUJYBVw5F-34" value="" style="endArrow=none;html=1;rounded=0;fillColor=#f8cecc;strokeColor=#b85450;strokeWidth=6;exitX=0.015;exitY=0.569;exitDx=0;exitDy=0;exitPerimeter=0;entryX=0.875;entryY=-0.004;entryDx=0;entryDy=0;entryPerimeter=0;" parent="1" source="UCaZJMUw1IZfUJYBVw5F-2" target="00phFU2rRCMJU7jdcwVd-1" edge="1">
          <mxGeometry width="50" height="50" relative="1" as="geometry">
            <mxPoint x="525" y="370" as="sourcePoint" />
            <mxPoint x="345" y="470" as="targetPoint" />
            <Array as="points">
              <mxPoint x="355" y="374" />
            </Array>
          </mxGeometry>
        </mxCell>
        <mxCell id="UCaZJMUw1IZfUJYBVw5F-35" value="" style="endArrow=classic;html=1;rounded=0;endWidth=11.724137931034484;fillColor=#0050ef;strokeColor=#001DBC;strokeWidth=3;" parent="1" edge="1">
          <mxGeometry width="50" height="50" relative="1" as="geometry">
            <mxPoint x="865" y="660" as="sourcePoint" />
            <mxPoint x="815" y="660" as="targetPoint" />
          </mxGeometry>
        </mxCell>
        <mxCell id="UCaZJMUw1IZfUJYBVw5F-36" value="" style="endArrow=classic;html=1;rounded=0;endWidth=11.724137931034484;fillColor=#0050ef;strokeColor=#001DBC;strokeWidth=3;" parent="1" edge="1">
          <mxGeometry width="50" height="50" relative="1" as="geometry">
            <mxPoint x="635" y="369.83" as="sourcePoint" />
            <mxPoint x="685" y="369.83" as="targetPoint" />
          </mxGeometry>
        </mxCell>
        <mxCell id="UCaZJMUw1IZfUJYBVw5F-37" value="" style="endArrow=classic;html=1;rounded=0;endWidth=11.724137931034484;fillColor=#0050ef;strokeColor=#001DBC;strokeWidth=3;" parent="1" edge="1">
          <mxGeometry width="50" height="50" relative="1" as="geometry">
            <mxPoint x="505" y="360" as="sourcePoint" />
            <mxPoint x="455" y="360" as="targetPoint" />
          </mxGeometry>
        </mxCell>
        <mxCell id="UCaZJMUw1IZfUJYBVw5F-38" value="" style="endArrow=classic;html=1;rounded=0;endWidth=11.724137931034484;fillColor=#0050ef;strokeColor=#001DBC;strokeWidth=3;" parent="1" edge="1">
          <mxGeometry width="50" height="50" relative="1" as="geometry">
            <mxPoint x="594.83" y="450" as="sourcePoint" />
            <mxPoint x="594.83" y="400" as="targetPoint" />
          </mxGeometry>
        </mxCell>
        <mxCell id="D4PkcG-bPS566rzzm9Mx-3" value="Lilygo T-relay as Gateway" style="text;html=1;strokeColor=default;fillColor=none;align=center;verticalAlign=middle;whiteSpace=wrap;rounded=0;" parent="1" vertex="1">
          <mxGeometry x="525.5" y="170" width="79" height="30" as="geometry" />
        </mxCell>
        <mxCell id="D4PkcG-bPS566rzzm9Mx-7" value="" style="shape=offPageConnector;whiteSpace=wrap;html=1;fillColor=#f5f5f5;fontColor=#333333;strokeColor=#666666;" parent="1" vertex="1">
          <mxGeometry x="97.5" y="595" width="30" height="30" as="geometry" />
        </mxCell>
        <mxCell id="D4PkcG-bPS566rzzm9Mx-8" value="pH, EC, NPK, sens (soil)" style="text;html=1;strokeColor=none;fillColor=none;align=center;verticalAlign=middle;whiteSpace=wrap;rounded=0;" parent="1" vertex="1">
          <mxGeometry x="90" y="545" width="45" height="30" as="geometry" />
        </mxCell>
        <mxCell id="D4PkcG-bPS566rzzm9Mx-9" value="" style="endArrow=none;html=1;rounded=0;fillColor=#fff2cc;strokeColor=#d6b656;entryX=0;entryY=0.25;entryDx=0;entryDy=0;exitX=0.5;exitY=1;exitDx=0;exitDy=0;" parent="1" source="D4PkcG-bPS566rzzm9Mx-10" edge="1" target="5iOmylpKupVFzkbTGkgb-1">
          <mxGeometry width="50" height="50" relative="1" as="geometry">
            <mxPoint x="50" y="670" as="sourcePoint" />
            <mxPoint x="113" y="795" as="targetPoint" />
            <Array as="points">
              <mxPoint x="165" y="660" />
              <mxPoint x="20" y="660" />
              <mxPoint x="20" y="110" />
            </Array>
          </mxGeometry>
        </mxCell>
        <mxCell id="D4PkcG-bPS566rzzm9Mx-10" value="" style="shape=offPageConnector;whiteSpace=wrap;html=1;fillColor=#f5f5f5;fontColor=#333333;strokeColor=#666666;" parent="1" vertex="1">
          <mxGeometry x="150" y="595" width="30" height="30" as="geometry" />
        </mxCell>
        <mxCell id="D4PkcG-bPS566rzzm9Mx-11" value="Moisture" style="text;html=1;strokeColor=none;fillColor=none;align=center;verticalAlign=middle;whiteSpace=wrap;rounded=0;" parent="1" vertex="1">
          <mxGeometry x="127.5" y="565" width="60" height="30" as="geometry" />
        </mxCell>
        <mxCell id="D4PkcG-bPS566rzzm9Mx-12" value="" style="endArrow=none;html=1;rounded=0;fillColor=#fff2cc;strokeColor=#d6b656;exitX=0.5;exitY=1;exitDx=0;exitDy=0;entryX=0.002;entryY=0.836;entryDx=0;entryDy=0;entryPerimeter=0;" parent="1" source="D4PkcG-bPS566rzzm9Mx-7" edge="1" target="5iOmylpKupVFzkbTGkgb-1">
          <mxGeometry width="50" height="50" relative="1" as="geometry">
            <mxPoint x="164" y="625" as="sourcePoint" />
            <mxPoint x="165" y="795" as="targetPoint" />
            <Array as="points">
              <mxPoint x="60" y="625" />
              <mxPoint x="60" y="140" />
            </Array>
          </mxGeometry>
        </mxCell>
        <mxCell id="D4PkcG-bPS566rzzm9Mx-14" value="" style="endArrow=classic;html=1;rounded=0;endWidth=11.724137931034484;fillColor=#fff2cc;strokeColor=#d6b656;" parent="1" edge="1">
          <mxGeometry width="50" height="50" relative="1" as="geometry">
            <mxPoint x="73.75" y="97.5" as="sourcePoint" />
            <mxPoint x="33.75" y="98" as="targetPoint" />
            <Array as="points" />
          </mxGeometry>
        </mxCell>
        <mxCell id="5iOmylpKupVFzkbTGkgb-1" value="ESP" style="rounded=0;whiteSpace=wrap;html=1;fillColor=#fff2cc;strokeColor=#d6b656;" parent="1" vertex="1">
          <mxGeometry x="93.75" y="97.5" width="90" height="50" as="geometry" />
        </mxCell>
        <mxCell id="5iOmylpKupVFzkbTGkgb-3" value="Node" style="text;html=1;strokeColor=default;fillColor=none;align=center;verticalAlign=middle;whiteSpace=wrap;rounded=0;" parent="1" vertex="1">
          <mxGeometry x="101.25" y="150" width="79" height="30" as="geometry" />
        </mxCell>
<<<<<<< HEAD
        <mxCell id="5iOmylpKupVFzkbTGkgb-4" value="" style="endArrow=none;html=1;rounded=0;entryX=1;entryY=0.5;entryDx=0;entryDy=0;exitX=-0.003;exitY=0.409;exitDx=0;exitDy=0;fillColor=#fff2cc;strokeColor=#d6b656;exitPerimeter=0;" parent="1" source="D4PkcG-bPS566rzzm9Mx-2" target="5iOmylpKupVFzkbTGkgb-2" edge="1">
=======
        <mxCell id="5iOmylpKupVFzkbTGkgb-4" value="" style="endArrow=none;html=1;rounded=0;exitX=0.003;exitY=0.363;exitDx=0;exitDy=0;fillColor=#fff2cc;strokeColor=#d6b656;exitPerimeter=0;entryX=1;entryY=0.5;entryDx=0;entryDy=0;" parent="1" source="D4PkcG-bPS566rzzm9Mx-2" target="5iOmylpKupVFzkbTGkgb-2" edge="1">
>>>>>>> 4426bee86224a81d50b2336c81a6f5cf31a6df04
          <mxGeometry width="50" height="50" relative="1" as="geometry">
            <mxPoint x="395" y="800" as="sourcePoint" />
            <mxPoint x="320" y="-100" as="targetPoint" />
          </mxGeometry>
        </mxCell>
        <mxCell id="jg2nMrfNA4UkTG1qtDvG-1" value="" style="endArrow=none;html=1;rounded=0;entryX=0.5;entryY=0;entryDx=0;entryDy=0;fillColor=#d5e8d4;strokeColor=#82b366;exitX=0.5;exitY=1;exitDx=0;exitDy=0;" parent="1" edge="1" target="D4PkcG-bPS566rzzm9Mx-2" source="jg2nMrfNA4UkTG1qtDvG-2">
          <mxGeometry width="50" height="50" relative="1" as="geometry">
            <mxPoint x="545.5" y="-72.5" as="sourcePoint" />
            <mxPoint x="545.505" y="-142.5" as="targetPoint" />
          </mxGeometry>
        </mxCell>
        <mxCell id="jg2nMrfNA4UkTG1qtDvG-2" value="AWS" style="rounded=0;whiteSpace=wrap;html=1;fillColor=#d5e8d4;strokeColor=#82b366;" parent="1" vertex="1">
<<<<<<< HEAD
          <mxGeometry x="605" y="660" width="90" height="50" as="geometry" />
=======
          <mxGeometry x="521.25" y="-250" width="90" height="50" as="geometry" />
>>>>>>> 4426bee86224a81d50b2336c81a6f5cf31a6df04
        </mxCell>
        <mxCell id="jg2nMrfNA4UkTG1qtDvG-3" value="" style="endArrow=classic;html=1;rounded=0;endWidth=11.724137931034484;fillColor=#d5e8d4;strokeColor=#82b366;" parent="1" edge="1">
          <mxGeometry width="50" height="50" relative="1" as="geometry">
            <mxPoint x="575" y="-132.5" as="sourcePoint" />
            <mxPoint x="575" y="-172.5" as="targetPoint" />
          </mxGeometry>
        </mxCell>
        <mxCell id="A_0UBxfmYY25pu0hcEkv-2" value="" style="endArrow=classic;html=1;rounded=0;endWidth=11.724137931034484;fillColor=#fff2cc;strokeColor=#d6b656;" edge="1" parent="1">
          <mxGeometry width="50" height="50" relative="1" as="geometry">
            <mxPoint x="450" y="240" as="sourcePoint" />
            <mxPoint x="450.17" y="280" as="targetPoint" />
          </mxGeometry>
        </mxCell>
        <mxCell id="A_0UBxfmYY25pu0hcEkv-3" value="" style="endArrow=classic;html=1;rounded=0;endWidth=11.724137931034484;fillColor=#fff2cc;strokeColor=#d6b656;" edge="1" parent="1">
          <mxGeometry width="50" height="50" relative="1" as="geometry">
            <mxPoint x="78.75" y="130" as="sourcePoint" />
            <mxPoint x="43.75" y="130" as="targetPoint" />
            <Array as="points" />
          </mxGeometry>
        </mxCell>
      </root>
    </mxGraphModel>
  </diagram>
</mxfile>
